<?xml version="1.0" encoding="utf-8"?>
<!-- Generator: Adobe Illustrator 18.1.1, SVG Export Plug-In . SVG Version: 6.00 Build 0)  -->
<svg version="1.1" id="Layer_1" xmlns="http://www.w3.org/2000/svg" xmlns:xlink="http://www.w3.org/1999/xlink" x="0px" y="0px"
	 viewBox="-11 -1 126 92" enable-background="new -11 -1 126 92" xml:space="preserve">
<path fill="#F29238" d="M33.7,91H-11V-1h44.7C38.3-1,42,2.7,42,7.3v75.4C42,87.3,38.3,91,33.7,91z"/>
<path fill="#FFFFFF" d="M18.2,71.5H-11v-53h29.2c4.6,0,8.3,3.7,8.3,8.3v36.4C26.5,67.8,22.8,71.5,18.2,71.5z"/>
<path fill="#F29238" d="M70.3-1H115v92H70.3c-4.6,0-8.3-3.7-8.3-8.3V7.3C62,2.7,65.7-1,70.3-1z"/>
<path fill="#FFFFFF" d="M85.8,18.5h29.2v53H85.8c-4.6,0-8.3-3.7-8.3-8.3V26.8C77.6,22.2,81.3,18.5,85.8,18.5z"/>
</svg>
