<?xml version="1.0" encoding="utf-8"?>
<!-- Generator: Adobe Illustrator 18.1.1, SVG Export Plug-In . SVG Version: 6.00 Build 0)  -->
<svg version="1.1" id="Layer_1" xmlns="http://www.w3.org/2000/svg" xmlns:xlink="http://www.w3.org/1999/xlink" x="0px" y="0px"
	 viewBox="0 0 500 500" style="enable-background:new 0 0 500 500;" xml:space="preserve">
<path style="fill:#F29238;" d="M743.2,72.7l-362.6,362c-87.4,87.2-228.9,87.1-316.1-0.3l0,0c-87.2-87.4-87.1-228.9,0.3-316.1
	l362.6-362L743.2,72.7z"/>
<g>
	<path style="fill:#F1666E;" d="M276,415.8l184.8-109.2c5.9-3.3,10.9-8.8,5.2-12.3L280.6,187.4c-2.8-1.7-7-2.9-9.8-1.3l-194,112.6
		c-5.9,3.4-6.9,13-1.1,16.4l176,100.5C259.2,420,268.4,420,276,415.8z"/>
	<path style="fill:#57413E;" d="M249.8,245.9l26.9,12.9c3.1,1.5,4.4,5.2,2.9,8.2c-0.5,1.1-1.4,2-2.5,2.7l-63.6,37.1
		c-2.9,1.7-6.5,0.8-8.3-2l-15.5-24.1"/>
	<path style="fill:#F29238;" d="M103.8,183.7L317.9,60.4c4.6-2.7,10.5-1.1,13.2,3.5c0.8,1.5,1.3,3.1,1.3,4.8v128.3
		c0,2.9-1.5,5.5-4,7L100.1,335.7c-2.5,1.4-5.7,0.6-7.1-1.9c-0.4-0.8-0.7-1.7-0.7-2.6V203.5C92.4,195.3,96.7,187.8,103.8,183.7z"/>
	<path style="fill:#FFFFFF;" d="M317.9,70.1L110.3,189.5c-4.5,2.6-7.3,7.4-7.3,12.6v96.2c0,2.9,2.4,5.3,5.3,5.3
		c0.9,0,1.8-0.2,2.6-0.7l211.7-121.5c1.6-0.9,2.6-2.6,2.6-4.5V74.3c0-2.7-2.2-4.9-4.8-4.9C319.5,69.4,318.6,69.6,317.9,70.1z"/>
	
		<ellipse transform="matrix(-0.982 -0.1891 0.1891 -0.982 412.2041 532.1364)" style="fill:#AB643C;" cx="231.5" cy="246.4" rx="4.5" ry="5.2"/>
	<path style="fill:#444CA0;" d="M239.7,228.9c4.3-13.2,12.7-24.8,24.1-32.8c13.6-9.3,28.3-8.6,31.4-20.4
		c3.5-13.5,13.5-31.8,29.9-36.4v36.6c0,2.8-1.5,5.4-4,6.8L239.7,228.9z"/>
	<path style="fill:#454DA0;" d="M103,238.1c0,0,25.1-10.8,29.8-30.2c2.9-12.3,8.9-26.9,21.3-32.5c3.8-1.7,7.8-2.6,11.1-5.3
		c2.9-2.5,5.6-5.4,7.8-8.6c2.9-4,5.6-8.1,7.8-12.5l-74.2,42.6c-2.2,1.2-3.5,3.6-3.5,6.1L103,238.1z"/>
	<path style="fill:#F9B2A6;" d="M325.5,135.7c0-0.3,0-0.7,0-1c-10.9,1.1-16.9,11.1-21.1,20.4c-5.9,13.1-13.1,26.7-27.7,31.3
		c-6.3,2-12.6,2.6-18.1,6.4c-4.2,3.1-7.8,7-10.6,11.5c-6.2,9.4-9.8,20.6-16.7,29.4l1.1-0.4c0.8-0.5,1.6-0.9,2.5-1.3
		c0.3-0.1,0.6-0.2,0.9-0.3c3.4-5.4,6.5-11.1,9.2-16.9c2.9-5.8,6.3-11.8,10.9-16.4c6.3-6.2,13.6-7.2,21.5-9.6
		c10.1-3.1,17.5-10.7,22.8-19.5c6.6-11,10.4-30.5,25.4-32.1L325.5,135.7z"/>
	<path style="fill:#F9B2A6;" d="M194.5,140.8c-0.9,0.7-1.8,1.2-2.8,1.7c-3.5,10-10.4,18.5-19.5,24c-9.4,5.6-20.8,7.6-29.3,15
		c-9,7.9-12.2,21.2-17.3,31.7c-5.4,11.1-12.3,21.5-23,27.8c0.1,0.9,0.2,1.8,0.2,2.8c9.8-5.4,16.9-14.3,22.2-24.1
		c6.7-12.4,10-29.9,22.2-38.4c9.6-6.7,21.7-8.7,31-15.9c8.1-6.3,13.9-15,16.6-24.9L194.5,140.8z"/>
	<path style="fill:#F9B2A6;" d="M126.8,274.9v0.3c0,3,2.4,5.5,5.5,5.5c0.9,0,1.8-0.2,2.7-0.7l42.9-23.9c1.7-1,2.8-2.8,2.8-4.8l0,0
		c0-3-2.4-5.5-5.5-5.5c-0.9,0-1.8,0.2-2.6,0.7l-42.9,23.6C127.9,271.1,126.8,272.9,126.8,274.9z"/>
	<path style="fill:#B4B4B4;" d="M186,206.6l-59.9,34.1c-0.7,0.4-0.9,1.3-0.5,2c0.4,0.7,1.3,0.9,2,0.5l59.9-34.1
		c0.6-0.5,0.8-1.3,0.3-2C187.5,206.5,186.7,206.3,186,206.6L186,206.6z"/>
	<path style="fill:#B4B4B4;" d="M186,215.5l-59.9,34.1c-0.7,0.4-0.9,1.3-0.5,2c0.4,0.7,1.3,0.9,2,0.5l59.9-34.1
		c0.6-0.5,0.8-1.3,0.3-2C187.5,215.4,186.7,215.2,186,215.5L186,215.5z"/>
	<path style="fill:#B4B4B4;" d="M186,224.5l-59.9,34.1c-0.7,0.4-0.9,1.3-0.5,2c0.4,0.7,1.3,0.9,2,0.5l59.8-34.2
		c0.6-0.5,0.8-1.3,0.3-2C187.4,224.3,186.7,224.2,186,224.5L186,224.5z"/>
	
		<ellipse transform="matrix(-0.8963 -0.4435 0.4435 -0.8963 443.9432 399.9995)" style="fill:none;stroke:#A1C63A;stroke-width:2;stroke-miterlimit:10;" cx="268.8" cy="148.1" rx="14.4" ry="22.5"/>
	
		<ellipse transform="matrix(-0.8963 -0.4435 0.4435 -0.8963 379.6936 422.9001)" style="fill:#C7DFF4;" cx="239.3" cy="167" rx="18.1" ry="25.3"/>
	<path style="fill:#F9AA43;" d="M239.3,167l12.5-21.9c0,0-8.3-6.6-20.8,3.5L239.3,167z"/>
	<path style="fill:#7887C3;" d="M239.3,167l-17.1-6.2c0,0,2-5.9,8.8-12.3L239.3,167z"/>
	<path style="fill:#E6E6E5;" d="M204.2,149l14.6-8.9c2.1-1.3,0.2-4.5-1.9-3.2l-14.6,8.9C200.2,147.1,202.1,150.3,204.2,149
		L204.2,149z"/>
	<path style="fill:#E6E6E5;" d="M262.4,114.7l14.6-8.9c2.1-1.3,0.2-4.5-1.9-3.2l-14.6,8.9C258.4,112.7,260.3,116,262.4,114.7z"/>
	<path style="fill:#E6E6E5;" d="M294.2,98.2l14.6-8.9c2.1-1.3,0.2-4.5-1.9-3.2l-14.6,8.9C290.3,96.2,292.2,99.5,294.2,98.2
		L294.2,98.2z"/>
	<path style="fill:#E6E6E5;" d="M231.7,132.8l14.6-8.9c2.1-1.3,0.2-4.5-1.9-3.2l-14.6,8.9C227.7,130.8,229.6,134.1,231.7,132.8z"/>
	<path style="fill:#B35028;" d="M264.1,400.1v-29.7l26.5-14.8v29.4L264.1,400.1z"/>
	<path style="fill:#CA6435;" d="M264.1,370.5l-25.8-14.8c0,0-0.7,29.9,0,30.4c0.7,0.5,25.8,14.1,25.8,14.1V370.5z"/>
	<polygon style="fill:#DA7D58;" points="238.2,355.6 264.1,339.9 290.6,355.6 264.1,370.5 	"/>
	<polygon style="fill:#FDEECC;" points="248.1,349.6 275,364.4 275,379.9 282.7,376 282.7,360.1 255.8,344.9 	"/>
	<path style="fill:#EDAD97;" d="M320.7,185.7c0,0,3.6-0.6,4.5-1.8c0.9-1.2,0-1.9,0-1.9s3.6-1.7,3-2.9c-0.5-1.2-3.5-4.1-5.5-4.1
		s-8.2,6.3-8.2,6.3"/>
	<path style="fill:#C34528;" d="M316.2,346.9c-0.1,0.7-0.7,1.3-1.4,1.3c-1.3,0.1-13.3-5.1-16.3,1.9c-0.4,0.9,0,1.9,0.8,2.4
		c6,3.8,12.7,6.3,19.8,7.2c2.4,0.5,4.9,0.2,7.1-0.9l-0.6-13.2L316.2,346.9z"/>
	<path style="fill:#C34528;" d="M345.3,340.8c0,0-11.3-7.3-13.2-2.7c-1.5,3.6,11.9,14.1,16.9,14.9s5.6-4.4,5.6-4.4l-0.2-8.5"/>
	<path style="fill:#343956;" d="M323.2,233.9c0,0-11.3,24.3-11.1,112c0,0,2.3,6.1,18.6,1.9l6.6-78.4l2.9,72.3c0,0,7.7,5.7,19.5-1.1
		c0,0-2.7-96.7-9.2-114"/>
	<path style="fill:#C34528;" d="M351.1,229.5c2.8-11.9,8.6-42.8,2.4-47.5c-5.4-4.1-18.1,0.4-27.7,6.9c-7.9,5.3-4.7,36.5-3.3,47.3
		C333,237.5,342.8,235.7,351.1,229.5z"/>
	<path style="fill:#C34528;" d="M353.3,182c0,0,4,2,5.5,8.8c1.5,6.8,4.1,24.2,0.1,28.8s-11.1-2.5-11.6-3"/>
	<path style="fill:#C34528;" d="M330.4,186.2c0,0-14.6,7.6-15.1,7.8c-0.5,0.2,6.9-5.7,6.9-5.7s-0.8-10.3-8.5-7.9
		c0,0-24.6,18.9-10.9,30.8c6.6,5.7,27.6-3.3,27.6-3.3"/>
	<path style="fill:#EDAD97;" d="M327.4,164.6c0,0-0.3,15.8,4.1,16.3c3.6,0.6,7.1-1.3,8.7-4.5"/>
	<path style="fill:#EDAD97;" d="M333.8,178.9v7.5c0,0,4,1.6,9.7-2.2V178"/>
	<path style="fill:#C34528;" d="M328.2,167.5c0,0-5.4-5.6-1.9-10.4c3.5-4.8,7.5-2.3,7.5-2.3s0.8-2.1,5-2.5c4.2-0.4,5.8,3.8,7.5,4.8
		c1.7,1,4.4,4.1,4.6,6.6c0.2,2.5-3.5,16.6-7.9,17.7C338.7,182.5,333,184.1,328.2,167.5z"/>
	
		<linearGradient id="SVGID_1_" gradientUnits="userSpaceOnUse" x1="301.2163" y1="276.8619" x2="317.9141" y2="300.6157" gradientTransform="matrix(1.25 0 0 -1.25 -0.25 689.75)">
		<stop  offset="0" style="stop-color:#FFFFFF;stop-opacity:0"/>
		<stop  offset="1" style="stop-color:#D33A27"/>
	</linearGradient>
	<path style="opacity:0.32;fill:url(#SVGID_1_);enable-background:new    ;" d="M369.8,313.3c3.5,1.8,6.9,3.7,10.2,5.9
		c5.2,3.5,13,6.2,17.8,10.1l37.4-21.5l-50.4-8.1l-19,11.2C367.1,311.7,368.4,312.5,369.8,313.3z"/>
	<path style="fill:#F29238;" d="M408.3,323.9v-30.4L381,278.2v30.2L408.3,323.9z"/>
	<path style="fill:#F29238;" d="M408.3,293.5l26.5-15.2c0,0,0.7,30.7,0,31.1c-0.7,0.5-26.5,14.5-26.5,14.5V293.5z"/>
	<polygon style="fill:#F29238;" points="434.8,278.3 408.3,262.1 381,278.3 408.3,293.5 	"/>
	<polygon style="fill:#F29238;" points="381,278.3 371.2,261.2 399.1,244.8 408.3,262.1 	"/>
	<path style="opacity:0.49;fill:#616161;enable-background:new    ;" d="M408.3,293.5l26.5-15.2c0,0,0.7,30.7,0,31.1
		c-0.7,0.5-26.5,14.5-26.5,14.5V293.5z"/>
	<polygon style="opacity:0.8;fill:#616161;enable-background:new    ;" points="435.1,277.7 408.6,261.5 381.4,277.7 408.6,292.9 	
		"/>
	<polygon style="fill:#F29238;" points="434.8,278.3 441.9,262.9 412.6,278.9 408.3,293.5 	"/>
</g>
</svg>
